<?xml version="1.0" encoding="UTF-8"?>
<svg version="1.1" viewBox="0 0 1440 1440" width="1280" height="1280" xmlns="http://www.w3.org/2000/svg">
<path transform="translate(389,502)" d="m0 0h322l27 1v61l-3 1h-325l-4 2-1 5v398l2 4 2 1h583l3-2 1-4 1-206 1-1h61v237l-4 13-7 10-7 7-14 7-10 2h-635l-8-2-12-6-10-9-6-10-3-8-1-5v-457l3-10 7-12 7-7 12-7 6-2z" fill="#1B1B1B"/>
<path transform="translate(760,616)" d="m0 0 4 4 16 28 15 26 10 17 12 21 90 156 14 24 16 28 2 5-2 1h-474v-4l12-21 10-17 9-16 14-24 12-21 13-22 16-28 15-26 10-17h3l11 20 13 22 16 28 14 24 3 6 2 1 2-5 8-14 28-48 6-11 13-22 16-28 14-24 13-23 13-22 10-17z" fill="#1A1A1A"/>
<path transform="translate(936,401)" d="m0 0h43l18 1v100h72l29 1v60l-1 1h-100v100l-1 1h-60l-1-1v-100h-100l-1-1v-60l4-1h96l1-100z" fill="#1D1D1D"/>
<path transform="translate(566,615)" d="m0 0h17l11 4 9 7 6 8 4 9 1 4v10l-2 9-5 9-7 8-10 6-7 2h-17l-10-4-8-6-7-10-4-11v-15l4-10 6-9 11-8z" fill="#1B1B1B"/>
<path transform="translate(403,572)" d="m0 0h1l1 398 2 4 2 1h583l3-2 1-4 1-206 1-1h55v1h-53v191l-1 14-2 7-2 2-6 2-575-1-9-2-2-5z" fill="#7B7B7B"/>
<path transform="translate(998,762)" d="m0 0h55v1h-53v191l-1 14-2 7-2 2-3-1 3-3 1-4 1-206z" fill="#717171"/>
<path transform="translate(389,502)" d="m0 0h322l27 1v59h-1l-1-58-144 1h-57v-2h-146z" fill="#aaa"/>
<path transform="translate(937,921)" d="m0 0 2 4-2 1h-474v-4l6 1 468 1z" fill="#474747"/>
<path transform="translate(566,615)" d="m0 0h17l4 2-7 1-17 1v2l-7 2-5 4-6 8h-2l-2 9-2 6 1 10 4 9 9 11 7 3v2l12 2h15l7-1-4 3-7 2h-17l-10-4-8-6-7-10-4-11v-15l4-10 6-9 11-8z" fill="#373737"/>
<path transform="translate(756,622)" d="m0 0h1v5l-2 3h-2l-1 5-1 3h-2l-2 6-6 10-6 12-4 4-2 5-5 9-3 5-4 7-6 10h-2l-1 5-6 10-5 10-4 2 2-5 15-27 13-22 13-23 13-22z" fill="#3B3B3B"/>
<path transform="translate(835,502)" d="m0 0h3l-1 3-1 58h99v1h-100l-1-1v-60z" fill="#363636"/>
<path transform="translate(377,503)" d="m0 0h158v1l-152 1-1 1h-11l3-2z" fill="#393939"/>
<path transform="translate(566,615)" d="m0 0h17l4 2-7 1-17 1v2l-7 2-5 4-6 8h-2l-2 9-4 3 2-8 5-9 5-6 11-7z" fill="#464646"/>
<path transform="translate(664,781)" d="m0 0 1 4-6 13h-2l-1 4-6 9-6 11-4 6h-2v2l-2-1 10-17 14-24z" fill="#3A3A3A"/>
<path transform="translate(527,813)" d="m0 0v3l-7 14-1 3h-2l-2 5-9 16h-2v2l-2-1 11-20 10-17z" fill="#424242"/>
<path transform="translate(692,733)" d="m0 0 1 4-6 11-3 5-3 6-3 2-2 6-3 3-1 3-3 1 2-5 9-16z" fill="#434343"/>
<path transform="translate(566,615)" d="m0 0h17l4 2-7 1-17 1v2h-6l3-4z" fill="#3A3A3A"/>
<path transform="translate(835,502)" d="m0 0h3l-1 3-1 33-2 1v-36z" fill="#818181"/>
<path transform="translate(594,762)" d="m0 0 3 3 15 26v2h-3l-8-16-6-9-2-4z" fill="#3E3E3E"/>
<path transform="translate(708,706)" d="m0 0 1 4-7 11-5 10-4 2 2-5 12-21z" fill="#363636"/>
<path transform="translate(463,922)" d="m0 0 6 1h14l8 2v1h-28z" fill="#9E9E9E"/>
<path transform="translate(575,729)" d="m0 0 3 3 4 7v2h-2v-2l-3-1-1-2-5 5-3-1 6-10z" fill="#494949"/>
<path transform="translate(555,763)" d="m0 0h2l-1 4-2 2-2 5-3 5-6 9-2 1 2-5z" fill="#393939"/>
<path transform="translate(720,686)" d="m0 0 1 3-4 7-6 10-3-1 10-17z" fill="#414141"/>
<path transform="translate(648,811)" d="m0 0 1 3-3 4-4 7-2 3h-2v2l-2-1 9-15z" fill="#474747"/>
<path transform="translate(540,789)" d="m0 0 1 4-3 4-3 7-5 6-1-2z" fill="#363636"/>
<path transform="translate(692,733)" d="m0 0 1 4-6 11-4 2 2-5z" fill="#3F3F3F"/>
<path transform="translate(756,622)" d="m0 0h1v5l-2 3h-2l-1 5-1 3h-3l2-6z" fill="#363636"/>
<path transform="translate(567,742)" d="m0 0h1v5l-5 7-2 5-3-1z" fill="#3B3B3B"/>
<path transform="translate(510,843)" d="m0 0 1 2-5 9h-2v2l-2-1 6-10z" fill="#363636"/>
<path transform="translate(748,638)" d="m0 0 1 2-6 10-3 1 2-5z" fill="#3C3C3C"/>
<path transform="translate(683,750)" d="m0 0 1 3-3 6-5 2 4-8z" fill="#4A4A4A"/>
<path transform="translate(890,842)" d="m0 0h2l5 8v2l-4-1z" fill="#343434"/>
<path transform="translate(582,743)" d="m0 0h2l6 10v2h-2l-4-7-3-3z" fill="#363636"/>
<path transform="translate(542,635)" d="m0 0 1 2-3 8-3 2 2-8 1-3z" fill="#4D4D4D"/>
<path transform="translate(763,623)" d="m0 0 4 2 4 8h-3l-3-6-4-2h2z" fill="#333"/>
</svg>